Coordinates
version=1
nRows=21
nColumns=22
inDegrees=yes

Units are S.I. units (second, meters, Newtons, ...)
If the header above contains a line with 'inDegrees', this indicates whether rotational values are in degrees (yes) or radians (no).

endheader
time	pelvis_tilt	pelvis_list	pelvis_rotation	pelvis_tx	pelvis_ty	pelvis_tz	hip_flexion_r	hip_adduction_r	hip_rotation_r	knee_angle_r	ankle_angle_r	subtalar_angle_r	hip_flexion_l	hip_adduction_l	hip_rotation_l	knee_angle_l	ankle_angle_l	subtalar_angle_l	lumbar_extension	lumbar_bending	lumbar_rotation
      4.63000000	      0.46804397	      0.16974572	      4.36507799	      0.47918759	      0.96874025	     -0.02920813	     29.35006697	     -3.80642485	     -8.90010281	    -18.68435526	     -1.00371263	     12.86393458	    -16.07255298	     -0.91341007	     -0.14784491	    -23.49843186	     10.46946909	      8.08091810	     -1.67636702	     -2.09402914	     -7.31022210
      4.64000000	      0.37210759	     -0.17941029	      4.39965159	      0.49236718	      0.96996085	     -0.02723288	     29.42488565	     -3.37322813	     -8.77750462	    -19.89591390	     -1.94104064	     12.38596788	    -15.67231636	     -1.53349304	     -0.62029849	    -25.04009963	      8.49717707	      8.93359165	     -1.30350919	     -1.68032966	     -7.27050667
      4.65000000	      0.27976143	     -0.55503059	      4.36812151	      0.50540510	      0.97137833	     -0.02509652	     29.42666540	     -2.85407374	     -8.58523438	    -20.97840999	     -2.73416758	     11.95387562	    -15.11814035	     -2.20015156	     -1.32164089	    -26.79100691	      6.41193753	      9.54669883	     -0.93154877	     -1.24817792	     -7.21499615
      4.66000000	      0.20263919	     -0.92013077	      4.31998990	      0.51823289	      0.97298122	     -0.02288003	     29.33587275	     -2.31140126	     -8.41470891	    -21.92837064	     -3.31661987	     11.23021434	    -14.41455297	     -2.89127977	     -2.13174347	    -28.75955552	      4.26807222	     10.12683108	     -0.58709041	     -0.84385637	     -7.16732214
      4.67000000	      0.15408588	     -1.27556797	      4.26797281	      0.53079026	      0.97476649	     -0.02062076	     29.12009737	     -1.74957249	     -8.27478941	    -22.70431852	     -3.70679750	     10.25834583	    -13.57472816	     -3.61276108	     -3.00329057	    -30.94396066	      2.15304527	     10.54064221	     -0.29349470	     -0.46385437	     -7.12459790
      4.68000000	      0.12780819	     -1.64086876	      4.20862605	      0.54302150	      0.97667234	     -0.01827521	     28.80406876	     -1.14455508	     -8.12421352	    -23.32597480	     -3.95006152	      9.22206255	    -12.59825586	     -4.39462352	     -3.92940547	    -33.33417353	      0.19068557	     10.72959820	     -0.05130259	     -0.08777335	     -7.09976111
      4.69000000	      0.12762040	     -2.00778323	      4.16116139	      0.55491601	      0.97866982	     -0.01590787	     28.39663939	     -0.52366894	     -8.00166049	    -23.81879033	     -4.04193527	      8.11232853	    -11.50453437	     -5.22166069	     -4.82415925	    -35.89907987	     -1.54285623	     10.71875137	      0.13105428	      0.27827979	     -7.08663828
      4.70000000	      0.15345718	     -2.36176812	      4.14253183	      0.56643627	      0.98074489	     -0.01353177	     27.89324321	      0.09417742	     -7.89532524	    -24.16449854	     -4.03195640	      6.85497561	    -10.30731104	     -6.05984776	     -5.58203848	    -38.59995453	     -2.95799396	     10.45444907	      0.24363430	      0.60870609	     -7.08797364
      4.71000000	      0.20237538	     -2.71177702	      4.14953352	      0.57761857	      0.98285202	     -0.01120751	     27.32034457	      0.69864772	     -7.84223406	    -24.40658254	     -3.90669653	      5.71038619	     -9.02825550	     -6.90913073	     -6.21972119	    -41.37690669	     -4.00726387	      9.99946429	      0.29721095	      0.92479278	     -7.07910550
      4.72000000	      0.27576508	     -3.05153839	      4.18475738	      0.58846016	      0.98499031	     -0.00896179	     26.68189859	      1.28343904	     -7.80995627	    -24.54943293	     -3.72155113	      4.67390389	     -7.69540498	     -7.73140868	     -6.67506852	    -44.15328626	     -4.66827903	      9.37668862	      0.28877318	      1.22117825	     -7.05702028
      4.73000000	      0.36559251	     -3.39190721	      4.24778674	      0.59898694	      0.98713573	     -0.00682057	     25.99069856	      1.85218204	     -7.80815059	    -24.59663392	     -3.49252859	      3.93790673	     -6.32232147	     -8.52925831	     -6.97433504	    -46.86329248	     -4.87844456	      8.75413502	      0.23667090	      1.51383182	     -7.03205897
      4.74000000	      0.48208297	     -3.67013943	      4.32483724	      0.60921544	      0.98930522	     -0.00480717	     25.25532460	      2.34514028	     -7.82591820	    -24.59366301	     -3.20498759	      3.23184255	     -4.96168903	     -9.20311660	     -7.10900054	    -49.40750940	     -4.76173283	      7.93980121	      0.12830221	      1.73175263	     -6.96848873
      4.75000000	      0.61998227	     -3.87128223	      4.39300091	      0.61917965	      0.99149660	     -0.00291757	     24.48278105	      2.75567051	     -7.82721500	    -24.54897308	     -2.85357228	      2.60603167	     -3.63986433	     -9.72876172	     -7.14071831	    -51.72505220	     -4.37235780	      6.92305963	     -0.02473396	      1.86145875	     -6.84044197
      4.76000000	      0.76317717	     -4.05626473	      4.46370852	      0.62887293	      0.99366947	     -0.00114461	     23.69354169	      3.13907397	     -7.84081301	    -24.45056721	     -2.53078153	      2.30725281	     -2.33645626	    -10.19183147	     -7.11424164	    -53.81306304	     -3.65938174	      6.13682145	     -0.19317125	      1.97734655	     -6.70994823
      4.77000000	      0.90457924	     -4.14579275	      4.50196775	      0.63835142	      0.99583098	      0.00052105	     22.89464530	      3.42868168	     -7.82125932	    -24.32168519	     -2.15675098	      2.04651171	     -1.09352609	    -10.48643440	     -7.06550972	    -55.59998334	     -2.81328480	      5.20711553	     -0.36338559	      1.98465549	     -6.49740746
      4.78000000	      1.04888382	     -4.17092893	      4.50616137	      0.64757464	      0.99795404	      0.00210965	     22.10335405	      3.65383305	     -7.78608291	    -24.19111358	     -1.78713487	      1.90786722	      0.08796497	    -10.67186074	     -7.04479527	    -57.10064908	     -1.86277114	      4.42222033	     -0.54445991	      1.92454392	     -6.25948681
      4.79000000	      1.18358604	     -4.13536274	      4.47151055	      0.65655933	      1.00001606	      0.00362932	     21.32955834	      3.81964966	     -7.72245298	    -24.05563704	     -1.41402932	      1.83763076	      1.21289908	    -10.75279036	     -7.06194601	    -58.31078610	     -0.88320785	      3.74672875	     -0.71741997	      1.80104673	     -5.98480572
      4.80000000	      1.30470544	     -4.04703963	      4.39573053	      0.66531716	      1.00200806	      0.00509533	     20.57446605	      3.93535994	     -7.62382772	    -23.90838405	     -1.03418927	      1.80866999	      2.27677462	    -10.74286901	     -7.12744566	    -59.22637347	      0.08418654	      3.20388184	     -0.87305953	      1.62060810	     -5.67423662
      4.81000000	      1.42890251	     -3.91423228	      4.28833760	      0.67383753	      1.00392944	      0.00649399	     19.83270171	      4.00054335	     -7.51909372	    -23.77095184	     -0.65163334	      1.77862200	      3.26427551	    -10.65987819	     -7.24001782	    -59.85958118	      1.03157186	      2.88009722	     -1.03570799	      1.39656655	     -5.33679440
      4.82000000	      1.52642666	     -3.77364418	      4.16370660	      0.68213169	      1.00573479	      0.00781886	     19.12204524	      4.05391627	     -7.37457203	    -23.61044175	     -0.29395151	      1.74604226	      4.21790551	    -10.55314005	     -7.40011151	    -60.22738978	      1.90618720	      2.60865228	     -1.16183696	      1.17124281	     -5.00202399
      4.83000000	      1.60589104	     -3.62550134	      4.01307116	      0.69021782	      1.00742262	      0.00911255	     18.44406086	      4.09697071	     -7.20208748	    -23.44928721	      0.05393496	      1.69768398	      5.11639283	    -10.43440517	     -7.62882637	    -60.32916305	      2.73357174	      2.38940639	     -1.26488627	      0.93866622	     -4.65344815
